<svg width="834.3125px" height="122px" xmlns="http://www.w3.org/2000/svg" viewBox="-167.15625 14 834.3125 122" style="background: rgba(0, 0, 0, 0);" preserveAspectRatio="xMidYMid"><defs><linearGradient id="editing-sticker-gradient" x1="0.5" y1="0.2" x2="0.5" y2="0.8"><stop offset="0" stop-color="#fd9"></stop><stop offset="1" stop-color="#9df"></stop></linearGradient><filter id="editing-sticker" x="-100%" y="-100%" width="300%" height="300%"><feMorphology operator="erode" radius="1" in="SourceAlpha" result="alpha-erode"></feMorphology><feConvolveMatrix order="3,3" divisor="1" kernelMatrix="0 1 0 1 1 1 0 1 0" in="alpha-erode" result="alpha-round"></feConvolveMatrix><feMorphology operator="dilate" radius="3.5" in="alpha-round" result="dilate-shadow"></feMorphology><feGaussianBlur in="dilate-shadow" stdDeviation="1.5" result="shadow"></feGaussianBlur><feFlood flood-color="#fff" result="flood-sticker"></feFlood><feComposite operator="in" in="flood-sticker" in2="alpha-round" result="comp-sticker"></feComposite><feMorphology operator="dilate" radius="3" in="comp-sticker" result="morph-sticker"></feMorphology><feConvolveMatrix order="3,3" divisor="1" kernelMatrix="0 1 0 1 1 1 0 1 0" in="morph-sticker" result="sticker"></feConvolveMatrix><feMerge><feMergeNode in="shadow"></feMergeNode><feMergeNode in="sticker"></feMergeNode><feMergeNode in="SourceGraphic"></feMergeNode></feMerge></filter></defs><g filter="url(#editing-sticker)"><g transform="translate(-48.75499540567398, 99)"><path d="M27.84-9.86L27.84-9.86L27.84-9.86Q29.06-8.32 29.06-5.34L29.06-5.34L29.06-5.34Q29.06-2.37 26.78-0.54L26.78-0.54L26.78-0.54Q24.51 1.28 20.54 1.28L20.54 1.28L20.54 1.28Q18.24 1.28 14.66 0.77L14.66 0.77L14.66 0.77Q7.62-0.32 5.60-0.32L5.60-0.32L5.60-0.32Q3.58-0.32 2.75-0.22L2.75-0.22L2.75-0.22Q1.92-0.13 0.58 0L0.58 0L8.32-42.24L22.34-42.24L15.94-7.04L15.94-7.04Q16.77-6.91 17.54-6.91L17.54-6.91L19.14-6.91L19.14-6.91Q24.51-6.91 27.84-9.86ZM66.11-13.25L66.11-13.25L66.11-13.25Q67.78-12.03 67.78-9.44L67.78-9.44L67.78-9.44Q67.78-6.85 66.66-5.02L66.66-5.02L66.66-5.02Q65.54-3.20 63.36-1.79L63.36-1.79L63.36-1.79Q58.69 1.22 50.53 1.22L50.53 1.22L50.53 1.22Q42.37 1.22 37.92-3.04L37.92-3.04L37.92-3.04Q33.47-7.30 33.47-14.85L33.47-14.85L33.47-14.85Q33.47-25.54 39.04-33.66L39.04-33.66L39.04-33.66Q43.26-39.68 50.82-42.24L50.82-42.24L50.82-42.24Q54.72-43.52 58.56-43.52L58.56-43.52L58.56-43.52Q62.40-43.52 64.77-43.01L64.77-43.01L64.77-43.01Q67.14-42.50 68.93-41.47L68.93-41.47L68.93-41.47Q72.83-39.23 72.83-35.65L72.83-35.65L72.83-35.65Q72.83-32.38 69.76-29.95L69.76-29.95L69.76-29.95Q66.94-27.78 64.64-27.78L64.64-27.78L64.64-27.78Q62.34-27.78 61.38-28.10L61.38-28.10L61.38-28.10Q61.63-30.40 61.63-31.90L61.63-31.90L61.63-31.90Q61.63-33.41 61.57-34.50L61.57-34.50L61.57-34.50Q61.50-35.58 61.18-36.61L61.18-36.61L61.18-36.61Q60.54-38.98 58.59-38.98L58.59-38.98L58.59-38.98Q56.64-38.98 54.69-37.15L54.69-37.15L54.69-37.15Q52.74-35.33 51.07-32.26L51.07-32.26L51.07-32.26Q47.30-25.28 47.30-17.02L47.30-17.02L47.30-17.02Q47.30-13.06 49.54-10.78L49.54-10.78L49.54-10.78Q51.78-8.51 56.58-8.51L56.58-8.51L56.58-8.51Q60.16-8.51 63.55-10.88L63.55-10.88L63.55-10.88Q65.02-11.90 66.11-13.25ZM98.11-42.69L98.11-42.69L98.11-42.69Q113.79-42.69 113.79-31.62L113.79-31.62L113.79-31.62Q113.79-25.54 109.89-21.89L109.89-21.89L109.89-21.89Q106.05-18.24 99.33-18.24L99.33-18.24L99.33-18.24Q96.19-18.24 93.76-20.03L93.76-20.03L93.76-20.03Q92.61-20.80 91.84-21.82L91.84-21.82L91.84-21.82Q96.51-21.82 98.98-24.67L98.98-24.67L98.98-24.67Q101.44-27.52 101.44-33.09L101.44-33.09L101.44-33.09Q101.44-38.66 95.94-38.66L95.94-38.66L94.40-38.66L94.40-38.66Q94.02-38.66 93.70-38.59L93.70-38.59L86.34 0L72.45 0L80.32-41.92L80.32-41.92Q87.17-42.56 91.14-42.62L91.14-42.62L91.14-42.62Q95.10-42.69 98.11-42.69ZM152.26-29.57L152.26-29.57L152.26-29.57Q153.22-31.49 153.22-33.28L153.22-33.28L153.22-33.28Q153.22-35.07 153.02-36.06L153.02-36.06L153.02-36.06Q152.83-37.06 152.38-37.82L152.38-37.82L152.38-37.82Q151.42-39.49 149.50-39.49L149.50-39.49L149.50-39.49Q147.14-39.49 145.22-37.76L145.22-37.76L145.22-37.76Q143.17-35.97 143.17-33.15L143.17-33.15L143.17-33.15Q143.17-31.36 144.42-29.98L144.42-29.98L144.42-29.98Q145.66-28.61 147.58-27.33L147.58-27.33L147.58-27.33Q149.50-26.05 151.68-24.77L151.68-24.77L151.68-24.77Q153.86-23.49 155.78-21.95L155.78-21.95L155.78-21.95Q160.19-18.43 160.19-13.70L160.19-13.70L160.19-13.70Q160.19-10.50 158.50-7.78L158.50-7.78L158.50-7.78Q156.80-5.06 153.98-3.07L153.98-3.07L153.98-3.07Q147.84 1.28 139.71 1.28L139.71 1.28L139.71 1.28Q133.12 1.28 129.73-0.86L129.73-0.86L129.73-0.86Q126.34-3.01 126.34-6.27L126.34-6.27L126.34-6.27Q126.34-12.10 130.88-13.57L130.88-13.57L130.88-13.57Q132.16-14.02 134.11-14.02L134.11-14.02L134.11-14.02Q136.06-14.02 138.30-13.18L138.30-13.18L138.30-13.18Q137.28-10.56 137.28-8.19L137.28-8.19L137.28-8.19Q137.28-3.07 140.93-3.07L140.93-3.07L140.93-3.07Q143.30-3.07 145.25-4.80L145.25-4.80L145.25-4.80Q147.20-6.53 147.20-8.48L147.20-8.48L147.20-8.48Q147.20-10.43 145.95-11.84L145.95-11.84L145.95-11.84Q144.70-13.25 142.85-14.37L142.85-14.37L142.85-14.37Q140.99-15.49 138.85-16.58L138.85-16.58L138.85-16.58Q136.70-17.66 134.85-19.20L134.85-19.20L134.85-19.20Q130.50-22.72 130.50-28.35L130.50-28.35L130.50-28.35Q130.50-32 132.29-34.85L132.29-34.85L132.29-34.85Q134.08-37.70 136.96-39.62L136.96-39.62L136.96-39.62Q142.72-43.52 149.79-43.52L149.79-43.52L149.79-43.52Q156.86-43.52 160.29-41.41L160.29-41.41L160.29-41.41Q163.71-39.30 163.71-35.71L163.71-35.71L163.71-35.71Q163.71-32.58 161.28-30.59L161.28-30.59L161.28-30.59Q159.17-28.93 156.61-28.93L156.61-28.93L156.61-28.93Q154.05-28.93 152.26-29.57ZM179.01 1.28L179.01 1.28L179.01 1.28Q164.93 1.28 164.93-11.97L164.93-11.97L164.93-11.97Q164.93-21.38 170.11-27.46L170.11-27.46L170.11-27.46Q175.62-33.92 185.15-33.92L185.15-33.92L185.15-33.92Q192.06-33.92 195.58-30.72L195.58-30.72L195.58-30.72Q199.10-27.52 199.10-20.80L199.10-20.80L199.10-20.80Q199.10-10.56 193.60-4.61L193.60-4.61L193.60-4.61Q188.22 1.28 179.01 1.28ZM180.67-26.56L180.67-26.56L180.67-26.56Q179.90-24.83 179.30-22.24L179.30-22.24L179.30-22.24Q178.69-19.65 177.92-15.55L177.92-15.55L177.92-15.55Q177.15-11.46 177.15-6.40L177.15-6.40L177.15-6.40Q177.15-4.74 177.70-3.65L177.70-3.65L177.70-3.65Q178.24-2.56 179.71-2.56L179.71-2.56L179.71-2.56Q181.18-2.56 182.11-3.26L182.11-3.26L182.11-3.26Q183.04-3.97 183.74-5.63L183.74-5.63L183.74-5.63Q185.02-8.58 186.05-14.05L186.05-14.05L186.05-14.05Q187.07-19.52 187.17-21.89L187.17-21.89L187.17-21.89Q187.26-24.26 187.26-26.02L187.26-26.02L187.26-26.02Q187.26-27.78 186.75-28.93L186.75-28.93L186.75-28.93Q186.24-30.08 184.80-30.08L184.80-30.08L184.80-30.08Q183.36-30.08 182.40-29.18L182.40-29.18L182.40-29.18Q181.44-28.29 180.67-26.56ZM234.30-26.62L234.30-26.62L234.30-26.62Q234.30-23.94 232.06-22.27L232.06-22.27L232.06-22.27Q229.82-20.61 226.18-20.61L226.18-20.61L226.18-20.61Q224.64-20.61 223.74-21.06L223.74-21.06L223.74-21.06Q224.45-22.72 224.67-24.80L224.67-24.80L224.67-24.80Q224.90-26.88 224.90-27.46L224.90-27.46L224.90-27.46Q224.90-30.14 223.04-30.14L223.04-30.14L223.04-30.14Q221.76-30.14 220.32-28.54L220.32-28.54L220.32-28.54Q218.88-26.94 217.66-24.45L217.66-24.45L217.66-24.45Q214.98-18.69 214.98-12.86L214.98-12.86L214.98-12.86Q214.98-9.66 216.19-8.22L216.19-8.22L216.19-8.22Q217.41-6.78 220.10-6.78L220.10-6.78L220.10-6.78Q223.81-6.78 226.75-9.86L226.75-9.86L226.75-9.86Q227.58-10.82 228.03-11.90L228.03-11.90L228.03-11.90Q230.46-10.62 230.46-7.10L230.46-7.10L230.46-7.10Q230.46-3.52 226.50-1.15L226.50-1.15L226.50-1.15Q222.40 1.28 215.87 1.28L215.87 1.28L215.87 1.28Q202.88 1.28 202.88-12.48L202.88-12.48L202.88-12.48Q202.88-22.53 208.58-28.29L208.58-28.29L208.58-28.29Q214.08-33.92 224.19-33.92L224.19-33.92L224.19-33.92Q234.30-33.92 234.30-26.62ZM251.39-3.52L251.39-3.52L251.39-3.52Q249.41 1.28 243.07 1.28L243.07 1.28L243.07 1.28Q239.81 1.28 237.76-0.96L237.76-0.96L237.76-0.96Q236.03-2.94 236.03-4.93L236.03-4.93L236.03-4.93Q236.03-10.11 238.40-20.22L238.40-20.22L240.77-32.64L253.76-33.92L249.86-13.70L249.86-13.70Q248.77-8.96 248.77-7.30L248.77-7.30L248.77-7.30Q248.77-3.65 251.39-3.52ZM241.92-41.54L241.92-41.54L241.92-41.54Q241.92-44.03 244.00-45.38L244.00-45.38L244.00-45.38Q246.08-46.72 249.09-46.72L249.09-46.72L249.09-46.72Q252.10-46.72 253.92-45.38L253.92-45.38L253.92-45.38Q255.74-44.03 255.74-41.54L255.74-41.54L255.74-41.54Q255.74-39.04 253.73-37.76L253.73-37.76L253.73-37.76Q251.71-36.48 248.70-36.48L248.70-36.48L248.70-36.48Q245.70-36.48 243.81-37.76L243.81-37.76L243.81-37.76Q241.92-39.04 241.92-41.54ZM259.62-1.92L259.62-1.92L259.62-1.92Q258.11-3.58 257.44-6.21L257.44-6.21L257.44-6.21Q256.77-8.83 256.77-13.12L256.77-13.12L256.77-13.12Q256.77-17.41 258.24-21.31L258.24-21.31L258.24-21.31Q259.71-25.22 262.40-28.03L262.40-28.03L262.40-28.03Q267.90-33.92 276.99-33.92L276.99-33.92L276.99-33.92Q280.26-33.92 282.62-32.83L282.62-32.83L293.57-33.92L288.83-8.96L288.83-8.96Q288.64-8.19 288.64-6.78L288.64-6.78L288.64-6.78Q288.64-5.38 289.50-4.48L289.50-4.48L289.50-4.48Q290.37-3.58 291.65-3.46L291.65-3.46L291.65-3.46Q291.01-1.28 288.67 0L288.67 0L288.67 0Q286.34 1.28 283.71 1.28L283.71 1.28L283.71 1.28Q281.09 1.28 279.33 0.29L279.33 0.29L279.33 0.29Q277.57-0.70 277.06-2.37L277.06-2.37L277.06-2.37Q276.03-0.77 273.86 0.26L273.86 0.26L273.86 0.26Q271.68 1.28 268.77 1.28L268.77 1.28L268.77 1.28Q265.86 1.28 263.49 0.51L263.49 0.51L263.49 0.51Q261.12-0.26 259.62-1.92ZM273.12-27.90L273.12-27.90L273.12-27.90Q272.38-26.75 271.74-24.80L271.74-24.80L271.74-24.80Q271.10-22.85 270.05-17.63L270.05-17.63L270.05-17.63Q268.99-12.42 268.99-8.70L268.99-8.70L268.99-8.70Q268.99-4.99 269.57-3.90L269.57-3.90L269.57-3.90Q270.14-2.82 271.17-2.82L271.17-2.82L271.17-2.82Q273.22-2.82 274.72-4.77L274.72-4.77L274.72-4.77Q276.22-6.72 276.80-10.18L276.80-10.18L280.19-28.93L280.19-28.93Q278.85-30.08 277.28-30.08L277.28-30.08L277.28-30.08Q275.71-30.08 274.78-29.57L274.78-29.57L274.78-29.57Q273.86-29.06 273.12-27.90ZM312.32-3.52L312.32-3.52L312.32-3.52Q310.34 1.28 304 1.28L304 1.28L304 1.28Q300.80 1.28 298.75-0.96L298.75-0.96L298.75-0.96Q297.09-2.82 297.09-4.93L297.09-4.93L297.09-4.93Q297.09-9.73 299.33-20.22L299.33-20.22L304-44.80L316.99-46.08L310.78-13.70L310.78-13.70Q309.70-8.96 309.70-7.30L309.70-7.30L309.70-7.30Q309.70-3.65 312.32-3.52ZM337.54 0L330.50 0L338.18-42.24L351.94-42.24L361.92-13.18L367.23-42.24L374.34-42.18L366.53 0L351.87 0L342.66-27.97L337.54 0ZM401.86-10.82L401.86-10.82L401.86-10.82Q403.46-9.73 403.46-7.33L403.46-7.33L403.46-7.33Q403.46-4.93 402.24-3.39L402.24-3.39L402.24-3.39Q401.02-1.86 399.04-0.83L399.04-0.83L399.04-0.83Q394.94 1.28 390.53 1.28L390.53 1.28L390.53 1.28Q386.11 1.28 383.52 0.32L383.52 0.32L383.52 0.32Q380.93-0.64 379.20-2.43L379.20-2.43L379.20-2.43Q375.81-5.82 375.81-12.03L375.81-12.03L375.81-12.03Q375.81-21.70 381.06-27.58L381.06-27.58L381.06-27.58Q386.69-33.92 396.48-33.92L396.48-33.92L396.48-33.92Q402.56-33.92 405.57-31.36L405.57-31.36L405.57-31.36Q407.81-29.44 407.81-26.30L407.81-26.30L407.81-26.30Q407.81-15.04 388.35-15.04L388.35-15.04L388.35-15.04Q388.10-13.38 388.10-11.97L388.10-11.97L388.10-11.97Q388.10-9.02 389.41-7.90L389.41-7.90L389.41-7.90Q390.72-6.78 393.15-6.78L393.15-6.78L393.15-6.78Q395.58-6.78 398.18-7.90L398.18-7.90L398.18-7.90Q400.77-9.02 401.86-10.82ZM388.80-17.79L388.80-17.79L388.80-17.79Q393.34-17.79 395.97-20.61L395.97-20.61L395.97-20.61Q398.59-23.30 398.59-27.58L398.59-27.58L398.59-27.58Q398.59-29.06 398.05-29.86L398.05-29.86L398.05-29.86Q397.50-30.66 396.42-30.66L396.42-30.66L396.42-30.66Q395.33-30.66 394.40-30.24L394.40-30.24L394.40-30.24Q393.47-29.82 392.51-28.42L392.51-28.42L392.51-28.42Q390.14-25.22 388.80-17.79ZM411.01-6.40L411.01-6.40L411.01-6.40Q411.01-8.13 411.90-12.48L411.90-12.48L415.30-29.76L411.52-29.76L411.78-31.68L411.78-31.68Q419.46-33.98 426.88-39.62L426.88-39.62L429.95-39.62L428.42-32.64L433.41-32.64L432.83-29.76L427.90-29.76L424.64-12.48L424.64-12.48Q423.81-8.51 423.81-7.17L423.81-7.17L423.81-7.17Q423.81-4.10 426.50-3.46L426.50-3.46L426.50-3.46Q425.86-1.28 423.55 0L423.55 0L423.55 0Q421.25 1.28 417.98 1.28L417.98 1.28L417.98 1.28Q414.72 1.28 412.86-0.77L412.86-0.77L412.86-0.77Q411.01-2.82 411.01-6.40ZM480.83-10.69L480.83-10.69Q476.61-4.86 472.54-1.79L472.54-1.79L472.54-1.79Q468.48 1.28 464.29 1.28L464.29 1.28L464.29 1.28Q460.10 1.28 458.62 0.45L458.62 0.45L458.62-13.63L458.62-13.63Q454.98-3.90 448.45-0.13L448.45-0.13L448.45-0.13Q446.08 1.28 443.84 1.28L443.84 1.28L443.84 1.28Q439.55 1.28 437.70 0.45L437.70 0.45L437.70 0.45Q437.25-14.21 436.86-18.27L436.86-18.27L436.86-18.27Q436.48-22.34 436.16-24.83L436.16-24.83L436.16-24.83Q435.52-29.82 433.34-31.87L433.34-31.87L433.34-31.87Q436.10-33.92 439.94-33.92L439.94-33.92L439.94-33.92Q447.36-33.92 448.38-24.70L448.38-24.70L448.38-24.70Q448.64-22.53 448.64-20.22L448.64-20.22L448.64-20.22Q448.64-16.77 447.87-4.74L447.87-4.74L447.87-4.74Q449.41-5.44 451.04-7.97L451.04-7.97L451.04-7.97Q452.67-10.50 454.02-13.95L454.02-13.95L454.02-13.95Q457.02-21.95 457.02-28.86L457.02-28.86L457.02-28.86Q457.02-29.95 456.74-31.10L456.74-31.10L456.74-31.10Q456.45-32.26 456.13-32.58L456.13-32.58L456.13-32.58Q458.37-33.92 461.79-33.92L461.79-33.92L461.79-33.92Q465.22-33.92 466.85-31.58L466.85-31.58L466.85-31.58Q468.48-29.25 468.93-24.96L468.93-24.96L468.93-24.96Q469.44-19.52 469.44-16.26L469.44-16.26L469.44-16.26Q469.44-11.71 468.99-4.99L468.99-4.99L468.99-4.99Q472.19-7.30 474.82-14.85L474.82-14.85L474.82-14.85Q477.44-22.40 477.44-27.78L477.44-27.78L477.44-27.78Q477.44-30.14 477.06-31.55L477.06-31.55L477.06-31.55Q479.17-33.92 482.82-33.92L482.82-33.92L482.82-33.92Q485.06-33.92 486.69-32.70L486.69-32.70L486.69-32.70Q488.32-31.49 488.32-29.22L488.32-29.22L488.32-29.22Q488.32-26.94 487.65-24.51L487.65-24.51L487.65-24.51Q486.98-22.08 485.89-19.58L485.89-19.58L485.89-19.58Q483.78-14.59 480.83-10.69L480.83-10.69ZM504 1.28L504 1.28L504 1.28Q489.92 1.28 489.92-11.97L489.92-11.97L489.92-11.97Q489.92-21.38 495.10-27.46L495.10-27.46L495.10-27.46Q500.61-33.92 510.14-33.92L510.14-33.92L510.14-33.92Q517.06-33.92 520.58-30.72L520.58-30.72L520.58-30.72Q524.10-27.52 524.10-20.80L524.10-20.80L524.10-20.80Q524.10-10.56 518.59-4.61L518.59-4.61L518.59-4.61Q513.22 1.28 504 1.28ZM505.66-26.56L505.66-26.56L505.66-26.56Q504.90-24.83 504.29-22.24L504.29-22.24L504.29-22.24Q503.68-19.65 502.91-15.55L502.91-15.55L502.91-15.55Q502.14-11.46 502.14-6.40L502.14-6.40L502.14-6.40Q502.14-4.74 502.69-3.65L502.69-3.65L502.69-3.65Q503.23-2.56 504.70-2.56L504.70-2.56L504.70-2.56Q506.18-2.56 507.10-3.26L507.10-3.26L507.10-3.26Q508.03-3.97 508.74-5.63L508.74-5.63L508.74-5.63Q510.02-8.58 511.04-14.05L511.04-14.05L511.04-14.05Q512.06-19.52 512.16-21.89L512.16-21.89L512.16-21.89Q512.26-24.26 512.26-26.02L512.26-26.02L512.26-26.02Q512.26-27.78 511.74-28.93L511.74-28.93L511.74-28.93Q511.23-30.08 509.79-30.08L509.79-30.08L509.79-30.08Q508.35-30.08 507.39-29.18L507.39-29.18L507.39-29.18Q506.43-28.29 505.66-26.56ZM547.90-17.98L547.90-17.98L547.90-17.98Q550.21-22.08 550.21-26.24L550.21-26.24L550.21-26.24Q550.21-28.99 548.22-28.99L548.22-28.99L548.22-28.99Q546.69-28.99 545.09-26.37L545.09-26.37L545.09-26.37Q543.42-23.74 542.91-20.35L542.91-20.35L539.58 0L526.34 1.28L532.86-32.64L543.42-33.92L542.27-27.46L542.27-27.46Q545.41-33.92 552.45-33.92L552.45-33.92L552.45-33.92Q556.16-33.92 558.18-32L558.18-32L558.18-32Q560.19-30.08 560.19-26.14L560.19-26.14L560.19-26.14Q560.19-22.21 557.60-19.71L557.60-19.71L557.60-19.71Q555.01-17.22 550.59-17.22L550.59-17.22L550.59-17.22Q548.67-17.22 547.90-17.98ZM577.73-30.34L577.73-30.34L577.73-30.34Q581.18-33.92 588.48-33.92L588.48-33.92L588.48-33.92Q592.51-33.92 594.72-31.78L594.72-31.78L594.72-31.78Q596.93-29.63 596.93-25.70L596.93-25.70L596.93-25.70Q596.93-21.76 594.72-18.98L594.72-18.98L594.72-18.98Q592.51-16.19 588.42-15.04L588.42-15.04L588.42-15.04Q588.74-13.76 589.18-12.42L589.18-12.42L590.08-9.86L590.08-9.86Q591.30-6.59 592.26-5.44L592.26-5.44L592.26-5.44Q593.22-4.29 594.50-3.90L594.50-3.90L594.50-3.90Q593.79-1.28 591.23 0.13L591.23 0.13L591.23 0.13Q589.18 1.28 586.37 1.28L586.37 1.28L586.37 1.28Q578.11 1.28 577.02-11.46L577.02-11.46L577.02-11.46Q576.83-13.25 576.83-15.04L576.83-15.04L576.83-15.04Q580.03-15.94 582.27-18.94L582.27-18.94L582.27-18.94Q584.51-21.95 584.51-25.47L584.51-25.47L584.51-25.47Q584.51-28.99 582.02-28.99L582.02-28.99L582.02-28.99Q580.22-28.99 578.82-27.01L578.82-27.01L578.82-27.01Q577.41-25.02 576.77-21.63L576.77-21.63L572.54 0L559.62 1.28L568.58-44.80L581.44-46.08L579.97-38.46L579.97-38.46Q579.01-33.09 577.73-30.34Z" fill="url(#editing-sticker-gradient)" stroke="#000" stroke-width="2.5"></path></g></g><style>text {
  font-size: 64px;
  font-family: Arial Black;
  dominant-baseline: central;
  text-anchor: middle;
}</style></svg>